<?xml version="1.0" encoding="utf-8"?>
<!-- Svg Vector Icons : http://www.onlinewebfonts.com/icon -->
<!DOCTYPE svg PUBLIC "-//W3C//DTD SVG 1.1//EN" "http://www.w3.org/Graphics/SVG/1.1/DTD/svg11.dtd">
<svg version="1.1" xmlns="http://www.w3.org/2000/svg" xmlns:xlink="http://www.w3.org/1999/xlink" x="0px" y="0px" viewBox="0 0 256 256" enable-background="new 0 0 256 256" xml:space="preserve">
<metadata> Svg Vector Icons : http://www.onlinewebfonts.com/icon </metadata>
<g><g><g><path fill="#000000" d="M39.8,69.8c-1.8,0.2-3.3,0.5-3.4,0.6c0,0.1,0.8,3,2,6.5c1.2,3.5,2,6.6,1.9,6.9c-0.1,0.3-7,5.3-15.2,11.2c-8.3,5.8-15.1,10.8-15.1,10.9c0,0.2,5.6,0.4,12.4,0.4h12.4l5.6-3.7c3-2,5.8-3.7,6-3.8c0.3,0,3.4,4.9,6.9,11c5.6,9.7,6.5,11.1,7.4,11c0.6,0,3.7-0.6,6.9-1.3c11.3-2.4,24.7-2,30.4,0.8c2.5,1.3,4.9,3.6,5.6,5.5c1.2,3.2,0.4,7.6-2.1,10.8c-2.4,3.1-2.2,3.1-17,3.4l-13.4,0.2l11,3.6c9.2,3,10.9,3.7,10.4,4.2c-0.5,0.4-39.2,25.3-42.2,27.1c-0.2,0.1-2.5-0.5-4.9-1.3c-4.1-1.5-4.8-1.6-9-1.5l-4.6,0.1l6.3,7l6.3,7.1h13.3h13.3l38.2-18l38.2-18l5.4,0.9c12.8,2.2,18.1,2.5,35.1,2.5c19.9,0,28.9-1,42.7-4.4c20.5-5.3,20.7-14.8,0.5-21.6c-3.6-1.2-4.2-1.6-8-5.2c-10.2-9.7-14.6-12.2-27.1-15.3c-4.2-1-4.4-1-53.6-1.2l-49.5-0.2l-9-10.2C64.4,73.8,62.5,72,56.4,70.3C53.4,69.5,43.9,69.2,39.8,69.8z M56.4,74.2c2.3,0.7,3.4,1.5,6.6,4.6c4.2,4,10.3,10.8,20.8,22.9l6.6,7.6l48.8,0.2c53.2,0.3,50.9,0.2,60.9,3c7.8,2.3,11.5,4.6,20.9,13.4c4.1,3.8,4.6,4.2,8.2,5.4c7.7,2.5,13,5.7,13,7.9c0,3-6.9,5.9-19.4,8.4c-21.2,4.1-46.7,4.2-70.5,0.2l-5.6-1l-38.3,18.1l-38.3,18l-12.1,0H45.8l-2.9-3.3c-1.6-1.8-2.7-3.4-2.5-3.4c0.2-0.1,2.5,0.6,5.2,1.6l4.8,1.8l3-1.9c1.7-1.1,13.2-8.4,25.6-16.4c12.5-7.9,22.7-14.5,22.8-14.5c0.1-0.1-1.7-0.8-3.9-1.5c-4-1.4-4.1-1.4-2-1.4c2.9-0.1,5.4-1.4,7.8-3.9c2.7-2.9,3.9-5.8,4.2-9.8c0.2-2.8,0-3.7-0.9-5.8c-2.4-5.1-7.2-8.1-14.7-9.4c-7.5-1.2-17.5-0.7-26.7,1.4c-2.8,0.6-3.5,0.7-4,0.2c-0.3-0.4-3.4-5.7-6.9-11.9c-3.5-6.1-6.4-11.2-6.5-11.2c-0.1,0-3.4,2.1-7.3,4.6l-7.1,4.7l-6.4-0.1l-6.3-0.1L33,93.7c9-6.3,12-8.7,11.8-9.2c-0.1-0.4-1.1-3-2-5.9c-1.5-4.5-1.7-5.2-1-5.4C43.7,72.7,53.7,73.3,56.4,74.2z"/><path fill="#000000" d="M184.3,116.6c-3.7,1-6.3,2-8.4,3.3l-2,1.2l1.8,1.8c2.1,2.1,7,4.6,11.3,5.8c2.4,0.6,4.8,0.8,11.5,0.8c4.7,0,9.3-0.2,10.3-0.4l1.8-0.4l-1.1-1.9c-1.5-2.7-5.6-7-7.9-8.4C197.1,116,189.6,115.1,184.3,116.6z M197.4,120.6c1.4,0.6,3.4,1.8,4.8,3.1l2.4,2.3l-6.1,0c-3.8,0-7.4-0.3-9.6-0.7c-3.7-0.7-8.4-2.6-8.4-3.3c0-0.6,4.7-2,7.8-2.4C191.6,119.2,194.4,119.5,197.4,120.6z"/><path fill="#000000" d="M131.4,125.1v4.2h2.8h2.8v-4.2V121h-2.8h-2.8V125.1z"/><path fill="#000000" d="M143.4,125.1v4.2h2.8h2.8v-4.2V121h-2.8h-2.8V125.1z"/><path fill="#000000" d="M154.5,125.1v4.2h3h3v-4.2V121h-3h-3V125.1z"/><path fill="#000000" d="M124.3,79.5c4.8,5.3,6.6,11,5.1,16.3c-0.4,1.5-1.2,3.4-1.7,4.2c-0.5,0.8-0.9,1.6-0.9,1.8c0,0.1,4.2,0.3,9.2,0.3h9.2V101c0-2-1.4-6.6-3-9.9c-1.8-3.7-5.6-8.1-8.9-10.2c-1.9-1.2-9.9-4.2-11.3-4.2C121.9,76.6,122.8,77.9,124.3,79.5z M135.1,87c2.1,2.3,4.9,7.2,5.8,10.2c0.3,1.1,0.2,1.1-3.9,1.1h-4.2l0.4-2.2c0.5-3.1,0.3-7.4-0.5-9.7c-0.4-1.1-0.5-1.9-0.3-1.9C132.5,84.5,133.7,85.7,135.1,87z"/><path fill="#000000" d="M72.6,121.7c-4.2,0.9-7.1,2.4-9.2,4.8l-1.7,1.9l0.8,1.5c1.7,2.8,5.8,4.9,11.9,5.9c3.3,0.6,14.1,0.6,14.9,0.1c0.5-0.3,0.4-0.8-0.3-2.4c-1.9-4.5-1.8-7.3,0.5-10c0.7-0.8,1.2-1.7,1.1-1.8c-0.1-0.1-3.6-0.4-7.6-0.5C77.6,121,75,121.2,72.6,121.7z M84.2,126.7c-0.2,1.1-0.1,2.9,0.1,3.9l0.4,1.9h-3.8c-2,0-5.1-0.2-6.7-0.5c-3.3-0.6-8-2.6-7.8-3.4s4.9-3,7.3-3.5c1.2-0.2,4-0.4,6.4-0.5l4.3,0L84.2,126.7z"/><path fill="#000000" d="M94.2,124.2c-1.2,1.3-1.5,6.2-0.5,8.2c0.6,1.2,1.1,1.5,2.1,1.5c1.6,0,2.6-1.2,3-3.9C99.7,125.2,96.7,121.6,94.2,124.2z"/></g></g></g>
</svg>